<?xml version="1.0" standalone="no"?><!DOCTYPE svg PUBLIC "-//W3C//DTD SVG 1.1//EN" "http://www.w3.org/Graphics/SVG/1.1/DTD/svg11.dtd"><svg t="1656836070204" class="icon" viewBox="0 0 1024 1024" version="1.1" xmlns="http://www.w3.org/2000/svg" p-id="8213" xmlns:xlink="http://www.w3.org/1999/xlink" width="128" height="128"><defs><style type="text/css">@font-face { font-family: feedback-iconfont; src: url("//at.alicdn.com/t/font_1031158_u69w8yhxdu.woff2?t=1630033759944") format("woff2"), url("//at.alicdn.com/t/font_1031158_u69w8yhxdu.woff?t=1630033759944") format("woff"), url("//at.alicdn.com/t/font_1031158_u69w8yhxdu.ttf?t=1630033759944") format("truetype"); }
</style></defs><path d="M512 639.88c-17.67 0-32-14.33-32-32v-127.7c0-17.67 14.33-32 32-32s32 14.33 32 32v127.71c0 17.67-14.33 31.99-32 31.99z" p-id="8214" fill="#ffffff"></path><path d="M326.65 831.31c-13.72 0-27.34-4.3-38.98-12.76-20.61-14.97-30.73-39.87-26.43-64.97l29.27-170.64c0.14-0.79-0.13-1.59-0.7-2.15L165.83 459.94c-18.24-17.78-24.68-43.87-16.81-68.1 7.87-24.23 28.42-41.55 53.63-45.21l171.33-24.9c0.79-0.12 1.48-0.61 1.83-1.33l76.62-155.25c11.27-22.84 34.1-37.03 59.57-37.03s48.3 14.19 59.57 37.03l76.62 155.25c0.35 0.72 1.04 1.21 1.83 1.33l171.33 24.9c25.21 3.66 45.76 20.99 53.63 45.21 7.87 24.23 1.43 50.32-16.81 68.1L734.2 580.79c-0.57 0.56-0.83 1.36-0.7 2.15l29.27 170.64c4.31 25.11-5.82 50-26.43 64.97-20.61 14.97-47.42 16.91-69.96 5.06l-153.24-80.57a2.44 2.44 0 0 0-2.26 0l-153.24 80.57c-9.82 5.15-20.43 7.7-30.99 7.7zM512 192.11c-1.51 0-1.9 0.78-2.18 1.36L433.2 348.72a66.417 66.417 0 0 1-50.02 36.34l-171.33 24.9c-0.63 0.09-1.5 0.22-1.96 1.65-0.47 1.44 0.16 2.05 0.62 2.49l123.98 120.85a66.415 66.415 0 0 1 19.1 58.8L324.31 764.4c-0.11 0.63-0.26 1.49 0.97 2.38 1.22 0.89 1.99 0.48 2.56 0.18l153.24-80.57a66.436 66.436 0 0 1 61.83 0l153.24 80.57c0.56 0.3 1.34 0.71 2.56-0.18 1.22-0.89 1.08-1.75 0.97-2.38l-29.27-170.64a66.385 66.385 0 0 1 19.11-58.8L813.5 414.11c0.46-0.45 1.08-1.06 0.62-2.49-0.47-1.44-1.33-1.56-1.96-1.65l-171.33-24.9a66.417 66.417 0 0 1-50.02-36.34l-76.62-155.25c-0.29-0.58-0.68-1.37-2.19-1.37z" p-id="8215" fill="#ffffff"></path></svg>