<?xml version="1.0" standalone="no"?><!DOCTYPE svg PUBLIC "-//W3C//DTD SVG 1.1//EN" "http://www.w3.org/Graphics/SVG/1.1/DTD/svg11.dtd"><svg t="1653207376067" class="icon" viewBox="0 0 1024 1024" version="1.1" xmlns="http://www.w3.org/2000/svg" p-id="12521" xmlns:xlink="http://www.w3.org/1999/xlink" width="200" height="200"><defs><style type="text/css">@font-face { font-family: feedback-iconfont; src: url("//at.alicdn.com/t/font_1031158_u69w8yhxdu.woff2?t=1630033759944") format("woff2"), url("//at.alicdn.com/t/font_1031158_u69w8yhxdu.woff?t=1630033759944") format("woff"), url("//at.alicdn.com/t/font_1031158_u69w8yhxdu.ttf?t=1630033759944") format("truetype"); }
</style></defs><path d="M381.420243 295.729394v77.449173c0 9.257773 7.451378 16.709151 16.709151 16.709151s16.709151-7.451378 16.709151-16.709151v-77.449173a16.528512 16.528512 0 0 0-16.709151-16.031753c-8.806174 0-16.257552 6.999779-16.709151 16.031753z m245.218081 0v77.449173a16.731731 16.731731 0 1 0 33.418302 0v-77.449173a16.528512 16.528512 0 0 0-16.709151-16.031753c-9.031974 0-16.483352 6.999779-16.709151 16.031753z" fill="#ffffff" p-id="12522"></path><path d="M286.76516 311.828886h490.210364c24.612128 0 44.48247 19.870342 44.482469 44.48247v401.019625c0 24.612128-19.870342 44.48247-44.482469 44.48247H286.76516c-24.612128 0-44.48247-19.870342-44.48247-44.48247V356.311356c0-24.386329 19.870342-44.48247 44.48247-44.48247z m0 33.418303a11.289967 11.289967 0 0 0-7.902977 3.16119 11.289967 11.289967 0 0 0-3.161191 7.902977v401.019625c0 6.096582 4.967585 11.064168 11.064168 11.064168h490.210364a11.289967 11.289967 0 0 0 7.902977-3.161191 11.289967 11.289967 0 0 0 3.16119-7.902977V356.311356a11.289967 11.289967 0 0 0-3.16119-7.902977 11.289967 11.289967 0 0 0-7.902977-3.16119H286.76516z" fill="#ffffff" p-id="12523"></path><path d="M478.739757 594.687718a16.686571 16.686571 0 0 0-16.709151-3.38699c-5.644983 2.032194-9.935171 6.999779-11.064167 12.870562-0.903197 5.870783 1.354796 11.967365 6.096582 15.805954l74.513782 63.449614 148.350165-144.285778c6.322381-6.548181 6.322381-16.709151 0-23.257331a16.641411 16.641411 0 0 0-23.257332-0.677398l-126.673429 123.060639-51.25645-43.579272zM258.133804 454.692128h555.917971v-33.418302h-555.917971v33.418302z" fill="#ffffff" p-id="12524"></path></svg>