<?xml version="1.0" standalone="no"?><!DOCTYPE svg PUBLIC "-//W3C//DTD SVG 1.1//EN" "http://www.w3.org/Graphics/SVG/1.1/DTD/svg11.dtd"><svg t="1653217093972" class="icon" viewBox="0 0 1024 1024" version="1.1" xmlns="http://www.w3.org/2000/svg" p-id="25453" xmlns:xlink="http://www.w3.org/1999/xlink" width="200" height="200"><defs><style type="text/css">@font-face { font-family: feedback-iconfont; src: url("//at.alicdn.com/t/font_1031158_u69w8yhxdu.woff2?t=1630033759944") format("woff2"), url("//at.alicdn.com/t/font_1031158_u69w8yhxdu.woff?t=1630033759944") format("woff"), url("//at.alicdn.com/t/font_1031158_u69w8yhxdu.ttf?t=1630033759944") format("truetype"); }
</style></defs><path d="M382.81216 230.4c-47.63648 0-67.19488 3.7888-87.42912 14.60224a96.29696 96.29696 0 0 0-40.1408 40.1408c-10.81344 20.23424-14.60224 39.79264-14.60224 87.42912v299.33568c0 47.63648 3.7888 67.19488 14.60224 87.42912a96.29696 96.29696 0 0 0 40.1408 40.1408c20.23424 10.81344 39.79264 14.60224 87.42912 14.60224h299.33568c47.63648 0 67.19488-3.7888 87.42912-14.60224a96.29696 96.29696 0 0 0 40.1408-40.1408c10.81344-20.23424 14.60224-39.79264 14.60224-87.42912V372.57216c0-47.63648-3.7888-67.19488-14.60224-87.42912a96.29696 96.29696 0 0 0-40.1408-40.1408c-20.23424-10.81344-39.79264-14.60224-87.42912-14.60224H382.81216z m0-30.72h299.33568c52.26496 0 76.63616 4.7104 101.90848 18.2272a127.01696 127.01696 0 0 1 52.75648 52.75648c13.5168 25.27232 18.2272 49.64352 18.2272 101.90848v299.33568c0 52.26496-4.7104 76.63616-18.2272 101.90848a127.01696 127.01696 0 0 1-52.75648 52.75648c-25.27232 13.5168-49.64352 18.2272-101.90848 18.2272H382.81216c-52.26496 0-76.63616-4.7104-101.90848-18.2272a127.01696 127.01696 0 0 1-52.75648-52.75648c-13.5168-25.27232-18.2272-49.64352-18.2272-101.90848V372.57216c0-52.26496 4.7104-76.63616 18.2272-101.90848a127.01696 127.01696 0 0 1 52.75648-52.75648c25.27232-13.5168 49.64352-18.2272 101.90848-18.2272z" p-id="25454" fill="#ffffff"></path><path d="M348.16 414.80192a15.36 15.36 0 0 1 0-30.72h204.8a15.36 15.36 0 1 1 0 30.72H348.16zM348.16 537.74336a15.36 15.36 0 1 1 0-30.72h163.84a15.36 15.36 0 0 1 0 30.72h-163.84zM348.16 660.54144a15.36 15.36 0 1 1 0-30.72h109.21984a15.36 15.36 0 1 1 0 30.72H348.16z" p-id="25455" fill="#ffffff"></path><path d="M604.01664 686.96064a51.2 51.2 0 1 0 0-102.4 51.2 51.2 0 0 0 0 102.4z m0 30.72a81.92 81.92 0 1 1 0-163.84 81.92 81.92 0 0 1 0 163.84zM686.2848 450.72384l31.5392-9.1136a41.0624 41.0624 0 0 0 29.696-39.44448v-12.9024l-48.10752 14.17216a18.432 18.432 0 0 0-13.2096 17.73568l0.1024 29.55264z m4.44416-76.73856l68.608-20.25472a14.7456 14.7456 0 0 1 18.90304 14.15168v34.28352a71.7824 71.7824 0 0 1-51.87584 68.97664l-70.656 20.3776-0.22528-70.2464a49.152 49.152 0 0 1 35.2256-47.3088z" p-id="25456" fill="#ffffff"></path><path d="M686.08 643.3792a15.36 15.36 0 1 1-30.72 0v-186.22464a15.36 15.36 0 0 1 30.72 0v186.22464z" p-id="25457" fill="#ffffff"></path></svg>