<?xml version="1.0" standalone="no"?><!DOCTYPE svg PUBLIC "-//W3C//DTD SVG 1.1//EN" "http://www.w3.org/Graphics/SVG/1.1/DTD/svg11.dtd"><svg t="1653211213004" class="icon" viewBox="0 0 1024 1024" version="1.1" xmlns="http://www.w3.org/2000/svg" p-id="17267" xmlns:xlink="http://www.w3.org/1999/xlink" width="200" height="200"><defs><style type="text/css">@font-face { font-family: feedback-iconfont; src: url("//at.alicdn.com/t/font_1031158_u69w8yhxdu.woff2?t=1630033759944") format("woff2"), url("//at.alicdn.com/t/font_1031158_u69w8yhxdu.woff?t=1630033759944") format("woff"), url("//at.alicdn.com/t/font_1031158_u69w8yhxdu.ttf?t=1630033759944") format("truetype"); }
</style></defs><path d="M352.774579 533.818935c-5.627161 0-11.225669-2.14178-15.510252-6.426363-8.569166-8.569166-8.569166-22.450315 0-31.019481L655.715169 177.935552c8.569166-8.569166 22.450315-8.569166 31.019481 0 8.569166 8.569166 8.569166 22.450315 0 31.019481L368.283808 527.392572C363.999225 531.677155 358.400716 533.818935 352.774579 533.818935z" p-id="17268" fill="#ffffff"></path><path d="M670.049642 851.095022c-5.627161 0-11.225669-2.14178-15.510252-6.426363L337.264327 527.392572c-8.569166-8.569166-8.569166-22.450315 0-31.019481s22.450315-8.569166 31.019481 0l317.275064 317.275064c8.569166 8.569166 8.569166 22.450315 0 31.019481C681.275311 848.952218 675.676803 851.095022 670.049642 851.095022z" p-id="17269" fill="#ffffff"></path></svg>