<?xml version="1.0" standalone="no"?><!DOCTYPE svg PUBLIC "-//W3C//DTD SVG 1.1//EN" "http://www.w3.org/Graphics/SVG/1.1/DTD/svg11.dtd"><svg t="1653823290162" class="icon" viewBox="0 0 1024 1024" version="1.1" xmlns="http://www.w3.org/2000/svg" p-id="5003" xmlns:xlink="http://www.w3.org/1999/xlink" width="200" height="200"><defs><style type="text/css">@font-face { font-family: feedback-iconfont; src: url("//at.alicdn.com/t/font_1031158_u69w8yhxdu.woff2?t=1630033759944") format("woff2"), url("//at.alicdn.com/t/font_1031158_u69w8yhxdu.woff?t=1630033759944") format("woff"), url("//at.alicdn.com/t/font_1031158_u69w8yhxdu.ttf?t=1630033759944") format("truetype"); }
</style></defs><path d="M864.711111 896h-113.777778v76.8c0 19.911111-17.066667 36.977778-36.977777 36.977778h-5.688889L156.444444 913.066667c-17.066667-2.844444-31.288889-17.066667-31.288888-36.977778V176.355556c0-17.066667 14.222222-34.133333 31.288888-36.977778L711.111111 14.222222c19.911111-2.844444 39.822222 11.377778 42.666667 31.288889v85.333333h113.777778c34.133333 0 56.888889 8.533333 56.888888 56.888889v654.222223c-2.844444 42.666667-22.755556 54.044444-59.733333 54.044444z m-170.666667-824.888889l-512 113.777778v682.666667l512 85.333333v-881.777778z m170.666667 113.777778h-113.777778v654.222222h113.777778v-654.222222z m-341.333333 341.333333h-199.111111s-28.444444-2.844444-28.444445-28.444444 28.444444-28.444444 28.444445-28.444445h199.111111s28.444444 0 28.444444 31.288889c0 25.6-28.444444 25.6-28.444444 25.6z m-110.933334 113.777778c-31.288889 0-31.288889-28.444444-31.288888-28.444444v-227.555556s2.844444-28.444444 28.444444-28.444444c28.444444 0 28.444444 28.444444 28.444444 28.444444v227.555556s0 28.444444-25.6 28.444444z" fill="#545E68" p-id="5004"></path></svg>