<?xml version="1.0" standalone="no"?><!DOCTYPE svg PUBLIC "-//W3C//DTD SVG 1.1//EN" "http://www.w3.org/Graphics/SVG/1.1/DTD/svg11.dtd"><svg t="1650709397776" class="icon" viewBox="0 0 1024 1024" version="1.1" xmlns="http://www.w3.org/2000/svg" p-id="38239" xmlns:xlink="http://www.w3.org/1999/xlink" width="200" height="200"><defs><style type="text/css">@font-face { font-family: feedback-iconfont; src: url("//at.alicdn.com/t/font_1031158_u69w8yhxdu.woff2?t=1630033759944") format("woff2"), url("//at.alicdn.com/t/font_1031158_u69w8yhxdu.woff?t=1630033759944") format("woff"), url("//at.alicdn.com/t/font_1031158_u69w8yhxdu.ttf?t=1630033759944") format("truetype"); }
</style></defs><path d="M832 160.128c0-17.664-14.336-32-32-32S768 142.464 768 160.128l0 282.88L214.592 134.592c-18.176-10.112-39.936-10.048-58.112 0C138.24 144.768 127.424 162.88 127.424 183.168l0 656.64c0 20.224 10.816 38.464 29.056 48.576C165.568 893.44 175.488 896 185.472 896s19.968-2.56 29.056-7.616L768 579.968l0 284.096c0 17.664 14.336 32 32 32s32-14.336 32-32L832 160.128zM191.808 829.248 188.672 192l573.312 319.488L191.808 829.248z" p-id="38240"></path></svg>