<?xml version="1.0" standalone="no"?><!DOCTYPE svg PUBLIC "-//W3C//DTD SVG 1.1//EN" "http://www.w3.org/Graphics/SVG/1.1/DTD/svg11.dtd"><svg t="1648393683329" class="icon" viewBox="0 0 1024 1024" version="1.1" xmlns="http://www.w3.org/2000/svg" p-id="18654" xmlns:xlink="http://www.w3.org/1999/xlink" width="200" height="200"><defs><style type="text/css">@font-face { font-family: feedback-iconfont; src: url("//at.alicdn.com/t/font_1031158_u69w8yhxdu.woff2?t=1630033759944") format("woff2"), url("//at.alicdn.com/t/font_1031158_u69w8yhxdu.woff?t=1630033759944") format("woff"), url("//at.alicdn.com/t/font_1031158_u69w8yhxdu.ttf?t=1630033759944") format("truetype"); }
</style></defs><path d="M831.7 638.5c-8.8 0-16 7.2-16 16v39c0 8.8 7.2 16 16 16s16-7.2 16-16v-39c0-8.8-7.1-16-16-16z" p-id="18655"></path><path d="M968.6 404.7L521.4 85.1c-5.6-4-13-4-18.6 0L54.1 404.7c-5.7 4-8.1 11.3-6 17.9 2.1 6.6 8.3 11.1 15.2 11.1H176l0.2 312.9c0 74.5 60.7 135.1 135.1 135.1H387c8.8 0 16-7.2 16-16V701.8c0-60.5 49.2-109.8 109.8-109.8 60.5 0 109.8 49.2 109.8 109.8v163.8c0 8.8 7.2 16 16 16h74.1c68.3 0 126-51 134.2-118.7 1.1-8.8-5.2-16.7-14-17.8-8.8-1.1-16.7 5.2-17.8 14-6.3 51.6-50.3 90.6-102.4 90.6h-58.1V701.8c0-78.2-63.6-141.8-141.8-141.8S371 623.6 371 701.8v147.8h-59.6c-56.8 0-103.1-46.2-103.1-103.1l-0.3-328.8c0-8.8-7.2-16-16-16h-78.7L512 117.8l397.3 283.9h-77.7c-8.8 0-16 7.2-16 16v144.8c0 8.8 7.2 16 16 16s16-7.2 16-16V433.7h111.6c7 0 13.1-4.5 15.2-11.1 2.3-6.6-0.1-13.9-5.8-17.9z" p-id="18656"></path></svg>