<?xml version="1.0" standalone="no"?><!DOCTYPE svg PUBLIC "-//W3C//DTD SVG 1.1//EN" "http://www.w3.org/Graphics/SVG/1.1/DTD/svg11.dtd"><svg t="1648395848541" class="icon" viewBox="0 0 1024 1024" version="1.1" xmlns="http://www.w3.org/2000/svg" p-id="28592" xmlns:xlink="http://www.w3.org/1999/xlink" width="200" height="200"><defs><style type="text/css">@font-face { font-family: feedback-iconfont; src: url("//at.alicdn.com/t/font_1031158_u69w8yhxdu.woff2?t=1630033759944") format("woff2"), url("//at.alicdn.com/t/font_1031158_u69w8yhxdu.woff?t=1630033759944") format("woff"), url("//at.alicdn.com/t/font_1031158_u69w8yhxdu.ttf?t=1630033759944") format("truetype"); }
</style></defs><path d="M730.5 855.5c12.9-0.3 23 11.1 23 24 0 26.9 21.9 48.7 48.7 48.7 40.2 0 73-32.7 73-73V831c0-93.7-76.2-169.9-169.9-169.9H317.4c-93.7 0-170 76.2-170 169.9v20.2c-0.3 30.2-25 28-25 28-12.9-0.5-23-11.1-23-24V831c0-58.2 22.7-112.9 63.8-154.1 41.2-41.2 95.9-63.8 154.1-63.8h387.9c58.2 0 112.9 22.7 154.1 63.8 41.2 41.2 63.8 95.9 63.8 154.1v24.2c0 66.7-54.3 121-121 121-45.4 0-83.5-31.4-93.9-73.6 0.1 0.1-13.9-46.3 22.3-47.1zM511.3 580.6c-71.2 0-138.1-27.7-188.4-78-50.3-50.3-78-117.2-78-188.4s27.7-138.1 78-188.4c50.3-50.3 117.2-78 188.4-78s138.1 27.7 188.4 78 78 117.2 78 188.4-27.7 138.1-78 188.4-117.2 78-188.4 78z m0-484.8c-58.3 0-113.2 22.7-154.5 64s-64 96.1-64 154.5c0 58.3 22.7 113.2 64 154.5s96.1 64 154.5 64c58.3 0 113.2-22.7 154.4-64 41.3-41.3 64-96.1 64-154.5S707 201 665.8 159.7c-41.3-41.2-96.1-63.9-154.5-63.9z" fill="#333333" p-id="28593"></path></svg>